<svg version="1" xmlns="http://www.w3.org/2000/svg" width="346.667" height="346.667" viewBox="0 0 260.000000 260.000000"><path d="M0 130v130h260V0H0v130zm207.6-85.1c4.5 1.1 10.6 3.1 13.7 4.5 5.4 2.4 5.6 2.5 5.1 5.8-.3 1.8-1.3 8.9-2.2 15.7-1.8 13-3.4 16.2-4.6 8.9-2.1-13.4-15.8-27.1-32.8-32.9-11.5-3.8-19.1-1.5-23.6 7.2C157 65.8 165 80 184 91c23.3 13.5 32.6 21 38.7 31.2 3.5 5.8 6.3 15.1 6.3 20.9v3.6l-13.1-3.2-13.2-3.2-4.8-5.6c-6.4-7.2-15.1-13.5-33.4-24.1-16-9.3-21.1-13.4-25.3-20.6-2.4-4.1-2.7-5.5-2.7-14.5 0-11.7 1.5-15.5 8.9-22.3 5.3-4.9 10.8-7.5 20.4-9.7 9.3-2 30.8-1.4 41.8 1.4zM75.1 52.3l17.4 7.4v60.9c0 59.7 0 61.1-2.2 69.6-6.9 27.1-21.2 39.4-49 42.2-6.9.7-7.1-1.3-.3-3.7 10.5-3.7 16.3-17.6 19-45.2.5-6.2 1-37.1 1-71 0-57-.1-60.3-1.9-63.8-1-2-1.8-3.7-1.6-3.7.1 0 8.1 3.3 17.6 7.3zm44.4 40.6c7.6 2 11.3 3.4 12 4.7 2.9 5.4 13.5 14.2 23.3 19.4 23.8 12.7 32.5 19.8 37.9 30.8 3.6 7.2 3.8 8.1 3.8 17.1 0 11.2-1.6 15.2-8.7 21.8-6.9 6.3-13.9 8.5-28.9 9.1-6.9.2-16.6-.1-21.5-.7-12.7-1.7-30.4-6-31.1-7.7-.5-1.3 3.4-31.4 4.2-32.2 1-1 2.3 1.1 2.9 4.7 2.2 13.7 29.2 33.1 46.1 33.1 9.7 0 15.2-6.6 14.2-17.2-1.2-13.9-11.6-23.9-43.1-41.9-15.3-8.7-21.5-14.5-24.5-22.4-3.1-8.3-2.6-21.5.8-21.5.9 0 6.5 1.3 12.6 2.9z"/></svg>